<svg width="105" height="105" xmlns="http://www.w3.org/2000/svg"><g fill="none" fill-rule="evenodd"><path fill="#A51919" d="M.709.688h104v104h-104z"/><path d="M45.023 27.689a3.124 3.124 0 0 1 3.125-3.125h37.145a3.124 3.124 0 1 1 0 6.25H48.148a3.124 3.124 0 0 1-3.125-3.125ZM32.89 19.197l-7.832 9.937-2.426-3.203a3.137 3.137 0 0 0-4.387-.613 3.133 3.133 0 0 0-.613 4.386l4.879 6.422a3.123 3.123 0 0 0 2.465 1.25h.031a3.12 3.12 0 0 0 2.453-1.191L37.796 23.06a3.12 3.12 0 0 0-.515-4.387 3.125 3.125 0 0 0-4.391.516v.008Zm52.402 30.367H48.147a3.124 3.124 0 1 0 0 6.25h37.145a3.124 3.124 0 1 0 0-6.25Zm0 25H48.147a3.124 3.124 0 1 0 0 6.25h37.145a3.124 3.124 0 1 0 0-6.25ZM37.425 46.126V59.25c0 .828-.328 1.625-.914 2.21a3.128 3.128 0 0 1-2.211.915H21.175a3.124 3.124 0 0 1-3.125-3.125V46.126A3.124 3.124 0 0 1 21.175 43H34.3c.828 0 1.625.328 2.21.914.587.586.915 1.382.915 2.21Zm-6.25 3.125H24.3v6.875h6.875V49.25Zm6.25 21.875V84.25c0 .828-.328 1.625-.914 2.21a3.128 3.128 0 0 1-2.211.915H21.175a3.124 3.124 0 0 1-3.125-3.125V71.126A3.124 3.124 0 0 1 21.175 68H34.3c.828 0 1.625.328 2.21.914.587.586.915 1.382.915 2.21Zm-6.25 3.125H24.3v6.875h6.875V74.25Z" fill="#FFF"/></g></svg>